<?xml version="1.0" encoding="utf-8"?>
<!-- Generator: Adobe Illustrator 17.1.0, SVG Export Plug-In . SVG Version: 6.00 Build 0)  -->
<!DOCTYPE svg PUBLIC "-//W3C//DTD SVG 1.1//EN" "http://www.w3.org/Graphics/SVG/1.1/DTD/svg11.dtd">
<svg version="1.1" id="Layer_1" xmlns="http://www.w3.org/2000/svg" xmlns:xlink="http://www.w3.org/1999/xlink" x="0px" y="0px"
	 viewBox="370 0 590 560" enable-background="new 370 0 590 560" xml:space="preserve">
<g id="Layer_2" display="none">
	<rect x="370" display="inline" stroke="#000000" stroke-miterlimit="10" width="590" height="560"/>
</g>
<g display="none">
	<path display="inline" fill="#FFFFFF" d="M558.9,346.6l38.3-5.2c1,24.5,5.6,41.3,13.8,50.3c8.2,9,19.5,13.6,33.9,13.6
		c10.6,0,19.8-2.4,27.5-7.3s13-11.5,16-19.9c2.9-8.4,4.4-21.8,4.4-40.1V117h42.4v218.4c0,26.8-3.2,47.6-9.7,62.3
		c-6.5,14.7-16.8,25.9-30.8,33.7C680.5,439.1,664,443,645,443c-28.1,0-49.7-8.1-64.6-24.3C565.5,402.6,558.3,378.5,558.9,346.6z"/>
</g>
<path fill="#FFFFFF" d="M812.4,181.8c1.3-3.6,3.9-6.3,7.5-8c4.8-2.6,10.1-3.8,15.4-3.8h8.7v-6h-98v6h8.7c5.3,0,10.4,1.3,15.2,3.9
	c3.6,2,5.4,4.4,6.5,7.1c1.4,3.7,1.7,11.3,1.7,22.8V269H675v-65.1c0-11.1,0.2-18.5,1.5-22.1c1.3-3.6,3.5-6.3,6.9-8
	c4.8-2.6,9.6-3.8,14.9-3.8h8.7v-6h-96.5h-0.8H514v6h7.8c5.3,0,10.4,1.3,15.2,3.9c3.6,2,6.3,4.4,7.4,7.1c1.4,3.7,2.6,11.2,2.6,22.6
	v154.3c0,9.3-1.7,15.8-4.4,19.5c-2.6,3.7-5.6,5.5-8.6,5.5c-4,0-7.4-3-9.9-9c-4.3-10.1-8-16.3-10.8-18.7c-2.8-2.3-6.1-3.5-9.6-3.5
	c-4.9,0-9.2,1.7-12.8,5.2c-2.8,2.8-4.2,6.9-4.2,12.3c0,6.7,3,12.6,9,17.8c6,5.2,14.2,7.8,24.7,7.8c12.9,0,23.9-3.9,33-11.8
	c9.1-7.8,16-17,19.7-27.6c3.7-10.6,6-24.3,6-41.3V203.7c0-13.6,0.9-22.1,3.6-25.6c4.2-5.4,10.5-8.1,19.7-8.1h7.3h0.8h7.2
	c5.3,0,10.4,1.3,15.3,3.9c3.4,2,6.2,4.4,7.3,7.1c1.4,3.7,2.7,11.3,2.7,22.8v145.8c0,13.6-1.8,21.8-4.5,25.4
	c-4.2,5.4-11.5,7.9-20.8,7.9H610v8h97v-8h-8.7c-5.3,0-10.4-1-15.2-3.7c-3.6-2-5.4-4.2-6.5-7c-1.4-3.7-1.7-11.1-1.7-22.5V282h103
	v67.7c0,13.6-0.9,21.8-3.7,25.4c-4.2,5.4-10.4,7.9-19.7,7.9H746v8h98v-8h-8.7c-5.3,0-10.4-1-15.3-3.7c-3.4-2-6.2-4.2-7.3-7
	c-1.4-3.7-2.7-11.1-2.7-22.5V203.9C810,192.8,811.1,185.4,812.4,181.8z"/>
<g>
	<path fill="#FFFFFF" d="M735.1,16.2c5.6,0,10.4,0.7,14.6,2c13.6,4.4,25.1,16.6,37.2,29.5c8.3,8.9,17,18.1,27,25.4
		c10.2,7.4,21.7,12.9,32.9,18.1c15.9,7.5,30.9,14.6,39.2,26c8.2,11.2,10.3,27.7,12.6,45c1.6,12.3,3.2,25,7.2,37.1
		c3.8,11.6,9.8,22.5,15.6,33c8.6,15.6,16.7,30.3,16.7,45c0,14.7-8.1,29.4-16.7,45c-5.8,10.5-11.8,21.5-15.6,33
		c-3.9,12.1-5.6,24.8-7.2,37.1c-2.3,17.4-4.4,33.8-12.6,45c-8.3,11.4-23.3,18.5-39.2,26c-11.1,5.3-22.7,10.7-32.9,18.1
		c-10,7.3-18.7,16.5-27,25.4c-12.1,12.9-23.5,25.1-37.2,29.5c-4.2,1.4-9,2-14.6,2c-9.7,0-20.2-2-31.4-4.1
		c-12.4-2.3-25.1-4.7-38.2-4.7c-13,0-25.8,2.4-38.2,4.7c-11.2,2.1-21.8,4.1-31.4,4.1c-5.6,0-10.4-0.7-14.6-2
		c-13.6-4.4-25.1-16.6-37.2-29.5c-8.3-8.9-17-18.1-27-25.4c-10.2-7.4-21.7-12.9-32.9-18.1c-15.9-7.5-30.9-14.6-39.2-26
		c-8.2-11.2-10.3-27.7-12.6-45c-1.6-12.3-3.2-25-7.2-37.1c-3.8-11.6-9.8-22.5-15.6-33c-8.6-15.6-16.7-30.3-16.7-45s8.1-29.4,16.7-45
		c5.8-10.5,11.8-21.5,15.6-33c3.9-12.1,5.6-24.8,7.2-37.1c2.3-17.4,4.4-33.8,12.6-45c8.3-11.4,23.3-18.5,39.2-26
		c11.1-5.3,22.7-10.7,32.9-18.1c10-7.3,18.7-16.5,27-25.4c12.1-12.9,23.5-25.1,37.2-29.5c4.2-1.4,9-2,14.6-2c9.7,0,20.2,2,31.4,4.1
		c12.4,2.3,25.1,4.7,38.2,4.7c13,0,25.8-2.4,38.2-4.7C714.9,18.2,725.5,16.2,735.1,16.2L735.1,16.2 M735.1,1.2
		c-22.3,0-46.5,8.8-69.6,8.8c-23.1,0-47.3-8.8-69.6-8.8c-6.6,0-13.1,0.8-19.2,2.8c-28,9.1-45.1,40.1-68.4,57.1
		C484.7,78.2,450,85,432.9,108.5c-17,23.3-12.8,58.3-21.9,86.3c-8.8,27-33,52.8-33,82.7c0,29.9,24.3,55.7,33,82.7
		c9.1,28,4.9,63,21.9,86.3c17.1,23.5,51.8,30.3,75.4,47.4c23.3,17,40.4,48,68.4,57.1c6.2,2,12.6,2.8,19.2,2.8
		c22.3,0,46.5-8.8,69.6-8.8c23.1,0,47.3,8.8,69.6,8.8c6.6,0,13.1-0.8,19.2-2.8c28-9.1,45.1-40.1,68.4-57.1
		c23.5-17.1,58.2-23.9,75.4-47.4c17-23.3,12.8-58.3,21.9-86.3c8.8-27,33-52.8,33-82.7c0-29.9-24.3-55.7-33-82.7
		c-9.1-28-4.9-63-21.9-86.3C881,85,846.3,78.2,822.7,61.1c-23.3-17-40.4-48-68.4-57.1C748.2,2,741.7,1.2,735.1,1.2L735.1,1.2z"/>
</g>
</svg>
